<?xml version="1.0" encoding="UTF-8" standalone="no"?>
<!DOCTYPE svg PUBLIC "-//W3C//DTD SVG 1.1//EN"
 "http://www.w3.org/Graphics/SVG/1.1/DTD/svg11.dtd">
<!-- Generated by graphviz version 2.31.20130501.0446 (20130501.0446)
 -->
<!-- Title: Charmed Pages: 1 -->
<svg width="288pt" height="1160pt"
 viewBox="0.00 0.00 288.00 1160.00" xmlns="http://www.w3.org/2000/svg" xmlns:xlink="http://www.w3.org/1999/xlink">
<g id="graph0" class="graph" transform="scale(1 1) rotate(0) translate(4 1156)">
<title>Charmed</title>
<polygon fill="white" stroke="white" points="-4,5 -4,-1156 285,-1156 285,5 -4,5"/>
<!-- a3238 -->
<g id="node1" class="node"><title>a3238</title>
<g id="a_node1"><a xlink:title="[ StateCheck(Myself,STATE_CHARMED) [ARAN] Look at all th&#39; pretty colors. Real nice, eh?">
<polygon fill="#c1ffc1" stroke="black" points="0,-381 0,-933 80,-933 80,-381 0,-381"/>
<text text-anchor="middle" x="25" y="-653.3" font-family="Times New Roman,serif" font-size="14.00">a1798</text>
<polyline fill="none" stroke="black" points="50,-381 50,-933 "/>
<text text-anchor="middle" x="65" y="-917.8" font-family="Times New Roman,serif" font-size="14.00">1</text>
<polyline fill="none" stroke="black" points="50,-910 80,-910 "/>
<text text-anchor="middle" x="65" y="-894.8" font-family="Times New Roman,serif" font-size="14.00">2</text>
<polyline fill="none" stroke="black" points="50,-887 80,-887 "/>
<text text-anchor="middle" x="65" y="-871.8" font-family="Times New Roman,serif" font-size="14.00">3</text>
<polyline fill="none" stroke="black" points="50,-864 80,-864 "/>
<text text-anchor="middle" x="65" y="-848.8" font-family="Times New Roman,serif" font-size="14.00">4</text>
<polyline fill="none" stroke="black" points="50,-841 80,-841 "/>
<text text-anchor="middle" x="65" y="-825.8" font-family="Times New Roman,serif" font-size="14.00">5</text>
<polyline fill="none" stroke="black" points="50,-818 80,-818 "/>
<text text-anchor="middle" x="65" y="-802.8" font-family="Times New Roman,serif" font-size="14.00">6</text>
<polyline fill="none" stroke="black" points="50,-795 80,-795 "/>
<text text-anchor="middle" x="65" y="-779.8" font-family="Times New Roman,serif" font-size="14.00">7</text>
<polyline fill="none" stroke="black" points="50,-772 80,-772 "/>
<text text-anchor="middle" x="65" y="-756.8" font-family="Times New Roman,serif" font-size="14.00">8</text>
<polyline fill="none" stroke="black" points="50,-749 80,-749 "/>
<text text-anchor="middle" x="65" y="-733.8" font-family="Times New Roman,serif" font-size="14.00">9</text>
<polyline fill="none" stroke="black" points="50,-726 80,-726 "/>
<text text-anchor="middle" x="65" y="-710.8" font-family="Times New Roman,serif" font-size="14.00">10</text>
<polyline fill="none" stroke="black" points="50,-703 80,-703 "/>
<text text-anchor="middle" x="65" y="-687.8" font-family="Times New Roman,serif" font-size="14.00">11</text>
<polyline fill="none" stroke="black" points="50,-680 80,-680 "/>
<text text-anchor="middle" x="65" y="-664.8" font-family="Times New Roman,serif" font-size="14.00">12</text>
<polyline fill="none" stroke="black" points="50,-657 80,-657 "/>
<text text-anchor="middle" x="65" y="-641.8" font-family="Times New Roman,serif" font-size="14.00">13</text>
<polyline fill="none" stroke="black" points="50,-634 80,-634 "/>
<text text-anchor="middle" x="65" y="-618.8" font-family="Times New Roman,serif" font-size="14.00">14</text>
<polyline fill="none" stroke="black" points="50,-611 80,-611 "/>
<text text-anchor="middle" x="65" y="-595.8" font-family="Times New Roman,serif" font-size="14.00">15</text>
<polyline fill="none" stroke="black" points="50,-588 80,-588 "/>
<text text-anchor="middle" x="65" y="-572.8" font-family="Times New Roman,serif" font-size="14.00">16</text>
<polyline fill="none" stroke="black" points="50,-565 80,-565 "/>
<text text-anchor="middle" x="65" y="-549.8" font-family="Times New Roman,serif" font-size="14.00">17</text>
<polyline fill="none" stroke="black" points="50,-542 80,-542 "/>
<text text-anchor="middle" x="65" y="-526.8" font-family="Times New Roman,serif" font-size="14.00">18</text>
<polyline fill="none" stroke="black" points="50,-519 80,-519 "/>
<text text-anchor="middle" x="65" y="-503.8" font-family="Times New Roman,serif" font-size="14.00">19</text>
<polyline fill="none" stroke="black" points="50,-496 80,-496 "/>
<text text-anchor="middle" x="65" y="-480.8" font-family="Times New Roman,serif" font-size="14.00">20</text>
<polyline fill="none" stroke="black" points="50,-473 80,-473 "/>
<text text-anchor="middle" x="65" y="-457.8" font-family="Times New Roman,serif" font-size="14.00">21</text>
<polyline fill="none" stroke="black" points="50,-450 80,-450 "/>
<text text-anchor="middle" x="65" y="-434.8" font-family="Times New Roman,serif" font-size="14.00">22</text>
<polyline fill="none" stroke="black" points="50,-427 80,-427 "/>
<text text-anchor="middle" x="65" y="-411.8" font-family="Times New Roman,serif" font-size="14.00">23</text>
<polyline fill="none" stroke="black" points="50,-404 80,-404 "/>
<text text-anchor="middle" x="65" y="-388.8" font-family="Times New Roman,serif" font-size="14.00">24</text>
</a>
</g>
</g>
<!-- a1567 -->
<g id="node2" class="node"><title>a1567</title>
<g id="a_node2"><a xlink:title="[[ARAN] &#39;We must all think for ourselves&#39;. Hey, that be a joke, right? I saw a snake charmer named Monty do that bit once.">
<polygon fill="none" stroke="black" points="126,-1128.5 126,-1151.5 180,-1151.5 180,-1128.5 126,-1128.5"/>
<text text-anchor="middle" x="153" y="-1136.3" font-family="Times New Roman,serif" font-size="14.00">a1567</text>
</a>
</g>
</g>
<!-- a3238&#45;&gt;a1567 -->
<g id="edge1" class="edge"><title>a3238:t1&#45;&gt;a1567</title>
<g id="a_edge1"><a xlink:title="[RandomNum(4,4) [PC] Hey, Aran, repeat after me... &#39;We must all think for ourselves&#39;...">
<path fill="#ffff33" stroke="black" d="M65,-934C65,-976.645 89.9936,-1085.2 116,-1119 116.794,-1120.03 117.655,-1121.02 118.568,-1121.97"/>
<polygon fill="black" stroke="black" points="116.463,-1124.77 126.391,-1128.47 120.937,-1119.39 116.463,-1124.77"/>
</a>
</g>
</g>
<!-- a1568 -->
<g id="node3" class="node"><title>a1568</title>
<g id="a_node3"><a xlink:title="[[ARAN] (*gulp*) Hey, that tastes like chicken. Or anythin&#39; you decide to cook, for that matter.">
<polygon fill="none" stroke="black" points="126,-1086.5 126,-1109.5 180,-1109.5 180,-1086.5 126,-1086.5"/>
<text text-anchor="middle" x="153" y="-1094.3" font-family="Times New Roman,serif" font-size="14.00">a1568</text>
</a>
</g>
</g>
<!-- a3238&#45;&gt;a1568 -->
<g id="edge2" class="edge"><title>a3238:t2&#45;&gt;a1568</title>
<g id="a_edge2"><a xlink:title="[RandomNum(4,3)[PC] Drink this cup of mud. It will make you feel better.">
<path fill="#ffff33" stroke="black" d="M80,-899C160.713,-899 69.0282,-1011.36 116,-1077 116.653,-1077.91 117.358,-1078.79 118.108,-1079.64"/>
<polygon fill="black" stroke="black" points="115.982,-1082.43 125.81,-1086.38 120.594,-1077.16 115.982,-1082.43"/>
</a>
</g>
</g>
<!-- a1569 -->
<g id="node4" class="node"><title>a1569</title>
<g id="a_node4"><a xlink:title="[[ARAN] (*swat*) OUCH! Banes Bouncing Buttocks, that bloody well hurt!">
<polygon fill="none" stroke="black" points="126,-1044.5 126,-1067.5 180,-1067.5 180,-1044.5 126,-1044.5"/>
<text text-anchor="middle" x="153" y="-1052.3" font-family="Times New Roman,serif" font-size="14.00">a1569</text>
</a>
</g>
</g>
<!-- a3238&#45;&gt;a1569 -->
<g id="edge3" class="edge"><title>a3238:t3&#45;&gt;a1569</title>
<g id="a_edge3"><a xlink:title="[RandomNum(4,2)[PC] Hey you have a fly on your nose. Swat it, quick!">
<path fill="#ffff33" stroke="black" d="M80,-876C152.455,-876 73.1559,-976.569 116,-1035 116.663,-1035.9 117.378,-1036.78 118.136,-1037.62"/>
<polygon fill="black" stroke="black" points="116.033,-1040.43 125.882,-1044.33 120.619,-1035.14 116.033,-1040.43"/>
</a>
</g>
</g>
<!-- a1570 -->
<g id="node5" class="node"><title>a1570</title>
<g id="a_node5"><a xlink:title="[[ARAN] Absolutely. You can have th&#39; whole purse. O&#39; course, there be naught in it, but I will pay you back th&#39; very second I have the coin.">
<polygon fill="none" stroke="black" points="126,-1002.5 126,-1025.5 180,-1025.5 180,-1002.5 126,-1002.5"/>
<text text-anchor="middle" x="153" y="-1010.3" font-family="Times New Roman,serif" font-size="14.00">a1570</text>
</a>
</g>
</g>
<!-- a3238&#45;&gt;a1570 -->
<g id="edge4" class="edge"><title>a3238:t4&#45;&gt;a1570</title>
<g id="a_edge4"><a xlink:title="[RandomNum(4,1)[PC] You owe me money, boyo. Come on, 20 gold, right now.">
<path fill="#ffff33" stroke="black" d="M80,-853C144.246,-853 77.262,-941.746 116,-993 116.676,-993.895 117.403,-994.758 118.17,-995.591"/>
<polygon fill="black" stroke="black" points="116.098,-998.424 125.972,-1002.26 120.648,-993.104 116.098,-998.424"/>
</a>
</g>
</g>
<!-- a1571 -->
<g id="node6" class="node"><title>a1571</title>
<g id="a_node6"><a xlink:title="[[ARAN] I be tryin&#39;, but there be too much in th&#39; way. Luckily, your arse be big enough that I don&#39;t even have to kneel down...">
<polygon fill="none" stroke="black" points="126,-960.5 126,-983.5 180,-983.5 180,-960.5 126,-960.5"/>
<text text-anchor="middle" x="153" y="-968.3" font-family="Times New Roman,serif" font-size="14.00">a1571</text>
</a>
</g>
</g>
<!-- a3238&#45;&gt;a1571 -->
<g id="edge5" class="edge"><title>a3238:t5&#45;&gt;a1571</title>
<g id="a_edge5"><a xlink:title="[RandomNum(4,4)[PC] Now I have you where I want you. Kiss my bottom, sellsword.">
<path fill="#66ffff" stroke="black" d="M80,-830C136.107,-830 81.3364,-906.881 116,-951 116.805,-952.024 117.674,-953.008 118.595,-953.952"/>
<polygon fill="black" stroke="black" points="116.509,-956.769 126.453,-960.426 120.96,-951.366 116.509,-956.769"/>
</a>
</g>
</g>
<!-- a1572 -->
<g id="node7" class="node"><title>a1572</title>
<g id="a_node7"><a xlink:title="[[ARAN] Right, then. I don&#39;t rightly think that word means what you think it meanZzzzzzzz... (Thud.)">
<polygon fill="none" stroke="black" points="126,-918.5 126,-941.5 180,-941.5 180,-918.5 126,-918.5"/>
<text text-anchor="middle" x="153" y="-926.3" font-family="Times New Roman,serif" font-size="14.00">a1572</text>
</a>
</g>
</g>
<!-- a3238&#45;&gt;a1572 -->
<g id="edge6" class="edge"><title>a3238:t6&#45;&gt;a1572</title>
<g id="a_edge6"><a xlink:title="[RandomNum(4,3)[PC] Go to sleep, Aran, and dream of large women.">
<path fill="#66ffff" stroke="black" d="M80,-807C128.074,-807 85.3618,-871.954 116,-909 116.83,-910.004 117.721,-910.97 118.661,-911.899"/>
<polygon fill="black" stroke="black" points="116.623,-914.752 126.605,-918.303 121.016,-909.302 116.623,-914.752"/>
</a>
</g>
</g>
<!-- a1573 -->
<g id="node8" class="node"><title>a1573</title>
<g id="a_node8"><a xlink:title="[[ARAN] Which head? I&#39;m not rightly equipped for standin&#39; on either... oh! You mean do a hand&#45;stand like one o&#39; them acrobat types! Right, can do. Hold on...~ = ~[ARAN] (*thud*) ...medic...">
<polygon fill="none" stroke="black" points="126,-876.5 126,-899.5 180,-899.5 180,-876.5 126,-876.5"/>
<text text-anchor="middle" x="153" y="-884.3" font-family="Times New Roman,serif" font-size="14.00">a1573</text>
</a>
</g>
</g>
<!-- a3238&#45;&gt;a1573 -->
<g id="edge7" class="edge"><title>a3238:t7&#45;&gt;a1573</title>
<g id="a_edge7"><a xlink:title="[RandomNum(4,2)[PC] Hey, Aran, stand on your head.">
<path fill="#66ffff" stroke="black" d="M80,-784C120.209,-784 89.3062,-836.93 116,-867 116.991,-868.116 118.055,-869.189 119.176,-870.217"/>
<polygon fill="black" stroke="black" points="117.121,-873.053 127.184,-876.369 121.386,-867.502 117.121,-873.053"/>
</a>
</g>
</g>
<!-- a1574 -->
<g id="node9" class="node"><title>a1574</title>
<g id="a_node9"><a xlink:title="[[ARAN] Now, I feel a hard pull to do what you just said, an&#39; that be strange, on account o&#39; that be a right nasty way to die. I&#39;m not keen on stickin&#39; blunt objects up there, neither.">
<polygon fill="none" stroke="black" points="126,-834.5 126,-857.5 180,-857.5 180,-834.5 126,-834.5"/>
<text text-anchor="middle" x="153" y="-842.3" font-family="Times New Roman,serif" font-size="14.00">a1574</text>
</a>
</g>
</g>
<!-- a3238&#45;&gt;a1574 -->
<g id="edge8" class="edge"><title>a3238:t8&#45;&gt;a1574</title>
<g id="a_edge8"><a xlink:title="[RandomNum(4,1) [PC] Hey, Aran, stick a dagger where the sun doesn&#39;t shine.">
<path fill="#66ffff" stroke="black" d="M80,-761C112.636,-761 93.1048,-801.743 116,-825 117.079,-826.096 118.226,-827.154 119.424,-828.174"/>
<polygon fill="black" stroke="black" points="117.715,-831.26 127.855,-834.331 121.843,-825.607 117.715,-831.26"/>
</a>
</g>
</g>
<!-- a1575 -->
<g id="node10" class="node"><title>a1575</title>
<g id="a_node10"><a xlink:title="[[ARAN] No, I feel right fine. I feel a strong compulsion to do anythin&#39; you say, an&#39; your face is surrounded by some right wild colors, but then again, that don&#39;t seem no different from an average day.">
<polygon fill="none" stroke="black" points="126,-792.5 126,-815.5 180,-815.5 180,-792.5 126,-792.5"/>
<text text-anchor="middle" x="153" y="-800.3" font-family="Times New Roman,serif" font-size="14.00">a1575</text>
</a>
</g>
</g>
<!-- a3238&#45;&gt;a1575 -->
<g id="edge9" class="edge"><title>a3238:t9&#45;&gt;a1575</title>
<g id="a_edge9"><a xlink:title="[[PC] Are you all right? It looks like you have been charmed or something.">
<path fill="#FF3300" stroke="black" d="M80,-738C105.612,-738 96.611,-766.265 116,-783 117.479,-784.276 119.046,-785.517 120.667,-786.716"/>
<polygon fill="black" stroke="black" points="118.795,-789.674 129.053,-792.325 122.687,-783.856 118.795,-789.674"/>
</a>
</g>
</g>
<!-- a1576 -->
<g id="node11" class="node"><title>a1576</title>
<g id="a_node11"><a xlink:title="[[ARAN] Drama queen tendencies, father issues, cutest little arse you ever did see, an&#39; I wouldn&#39;t kick her out o&#39; bed. At least, not right away.">
<polygon fill="none" stroke="black" points="126,-750.5 126,-773.5 180,-773.5 180,-750.5 126,-750.5"/>
<text text-anchor="middle" x="153" y="-758.3" font-family="Times New Roman,serif" font-size="14.00">a1576</text>
</a>
</g>
</g>
<!-- a3238&#45;&gt;a1576 -->
<g id="edge10" class="edge"><title>a3238:t10&#45;&gt;a1576</title>
<g id="a_edge10"><a xlink:title="[InParty(Player2) Gender(Player2,FEMALE) !Name(c&#45;aran,Player2) [PC] So, what do you really think of PLAYER2?">
<path fill="#6600CC" stroke="black" d="M80,-715C99.7365,-715 99.4564,-730.237 116,-741 118.123,-742.381 120.338,-743.777 122.581,-745.158"/>
<polygon fill="black" stroke="black" points="120.854,-748.203 131.23,-750.347 124.455,-742.201 120.854,-748.203"/>
</a>
</g>
</g>
<!-- a1577 -->
<g id="node12" class="node"><title>a1577</title>
<g id="a_node12"><a xlink:title="[[ARAN] I think she needs a good roll in th&#39; hay, or mayhap some strong drink, or perhaps even a solid knock aside th&#39; head to set her straight. I think I will not be volunteerin&#39; for that job. But you could always order me to...">
<polygon fill="none" stroke="black" points="126,-708.5 126,-731.5 180,-731.5 180,-708.5 126,-708.5"/>
<text text-anchor="middle" x="153" y="-716.3" font-family="Times New Roman,serif" font-size="14.00">a1577</text>
</a>
</g>
</g>
<!-- a3238&#45;&gt;a1577 -->
<g id="edge11" class="edge"><title>a3238:t11&#45;&gt;a1577</title>
<g id="a_edge11"><a xlink:title="[InParty(Player3) Gender(Player3,FEMALE) !Name(c&#45;aran,Player3) [PC] So, what do you really think of PLAYER3?">
<path fill="#989898" stroke="black" d="M80,-692C95.4332,-692 111.539,-697.657 124.595,-703.886"/>
<polygon fill="black" stroke="black" points="123.013,-707.008 133.51,-708.45 126.203,-700.777 123.013,-707.008"/>
</a>
</g>
</g>
<!-- a1578 -->
<g id="node13" class="node"><title>a1578</title>
<g id="a_node13"><a xlink:title="[[ARAN] PLAYER4? I don&#39;t rightly know yet. Get her drunk, let her sing some, an&#39; I&#39;ll have me some observations to share. What gig do you be auditionin&#39; her for?">
<polygon fill="none" stroke="black" points="126,-666.5 126,-689.5 180,-689.5 180,-666.5 126,-666.5"/>
<text text-anchor="middle" x="153" y="-674.3" font-family="Times New Roman,serif" font-size="14.00">a1578</text>
</a>
</g>
</g>
<!-- a3238&#45;&gt;a1578 -->
<g id="edge12" class="edge"><title>a3238:t12&#45;&gt;a1578</title>
<g id="a_edge12"><a xlink:title="[InParty(Player4) Gender(Player4,FEMALE) !Name(c&#45;aran,Player4) [PC] So, what do you really think of PLAYER4?">
<path fill="#FF00FF" stroke="black" d="M80,-669C91.6702,-669 104.323,-670.179 115.719,-671.683"/>
<polygon fill="black" stroke="black" points="115.369,-675.169 125.766,-673.131 116.368,-668.24 115.369,-675.169"/>
</a>
</g>
</g>
<!-- a1579 -->
<g id="node14" class="node"><title>a1579</title>
<g id="a_node14"><a xlink:title="[[ARAN] Nice tits.">
<polygon fill="none" stroke="black" points="126,-624.5 126,-647.5 180,-647.5 180,-624.5 126,-624.5"/>
<text text-anchor="middle" x="153" y="-632.3" font-family="Times New Roman,serif" font-size="14.00">a1579</text>
</a>
</g>
</g>
<!-- a3238&#45;&gt;a1579 -->
<g id="edge13" class="edge"><title>a3238:t13&#45;&gt;a1579</title>
<g id="a_edge13"><a xlink:title="[InParty(Player5) Gender(Player5,FEMALE) !Name(c&#45;aran,Player5) [PC] So, what do you really think of PLAYER5?">
<path fill="#00FFFF" stroke="black" d="M80,-645C91.6702,-645 104.323,-643.821 115.719,-642.317"/>
<polygon fill="black" stroke="black" points="116.368,-645.76 125.766,-640.869 115.369,-638.831 116.368,-645.76"/>
</a>
</g>
</g>
<!-- a1580 -->
<g id="node15" class="node"><title>a1580</title>
<g id="a_node15"><a xlink:title="[[ARAN] That be strange. I feel a right strong compulsion to say what I think, but somethin&#39; tells me that if I do PLAYER6 will slice my head off. Or you will. Or you both will. I be gettin&#39; a mite bit confused...">
<polygon fill="none" stroke="black" points="126,-582.5 126,-605.5 180,-605.5 180,-582.5 126,-582.5"/>
<text text-anchor="middle" x="153" y="-590.3" font-family="Times New Roman,serif" font-size="14.00">a1580</text>
</a>
</g>
</g>
<!-- a3238&#45;&gt;a1580 -->
<g id="edge14" class="edge"><title>a3238:t14&#45;&gt;a1580</title>
<g id="a_edge14"><a xlink:title="[InParty(Player6) Gender(Player6,FEMALE) !Name(c&#45;aran,Player6) [PC] So, what do you really think of PLAYER6?">
<path fill="#480000" stroke="black" d="M80,-622C95.4332,-622 111.539,-616.343 124.595,-610.114"/>
<polygon fill="black" stroke="black" points="126.203,-613.223 133.51,-605.55 123.013,-606.992 126.203,-613.223"/>
</a>
</g>
</g>
<!-- a1581 -->
<g id="node16" class="node"><title>a1581</title>
<g id="a_node16"><a xlink:title="[[ARAN] Not bad lookin&#39; for an ugly fellow. His kids are goin&#39; to be one hell o&#39; a mess, though.">
<polygon fill="none" stroke="black" points="126,-540.5 126,-563.5 180,-563.5 180,-540.5 126,-540.5"/>
<text text-anchor="middle" x="153" y="-548.3" font-family="Times New Roman,serif" font-size="14.00">a1581</text>
</a>
</g>
</g>
<!-- a3238&#45;&gt;a1581 -->
<g id="edge15" class="edge"><title>a3238:t15&#45;&gt;a1581</title>
<g id="a_edge15"><a xlink:title="[InParty(Player2) Gender(Player2,MALE) !Name(c&#45;aran,Player2) [PC] So, what do you really think of PLAYER2?">
<path fill="#000000" stroke="black" d="M80,-599C99.7365,-599 99.4564,-583.763 116,-573 118.123,-571.619 120.338,-570.223 122.581,-568.842"/>
<polygon fill="black" stroke="black" points="124.455,-571.799 131.23,-563.653 120.854,-565.797 124.455,-571.799"/>
</a>
</g>
</g>
<!-- a1582 -->
<g id="node17" class="node"><title>a1582</title>
<g id="a_node17"><a xlink:title="[[ARAN] Not bad in a fight. Not so hot in th&#39; ladies department, though. An&#39; his farts smell like old feet.">
<polygon fill="none" stroke="black" points="126,-498.5 126,-521.5 180,-521.5 180,-498.5 126,-498.5"/>
<text text-anchor="middle" x="153" y="-506.3" font-family="Times New Roman,serif" font-size="14.00">a1582</text>
</a>
</g>
</g>
<!-- a3238&#45;&gt;a1582 -->
<g id="edge16" class="edge"><title>a3238:t16&#45;&gt;a1582</title>
<g id="a_edge16"><a xlink:title="[InParty(Player3) Gender(Player3,MALE) !Name(c&#45;aran,Player3) [PC] So, what do you really think of PLAYER3?">
<path fill="#003366" stroke="black" d="M80,-576C105.612,-576 96.611,-547.735 116,-531 117.479,-529.724 119.046,-528.483 120.667,-527.284"/>
<polygon fill="black" stroke="black" points="122.687,-530.144 129.053,-521.675 118.795,-524.326 122.687,-530.144"/>
</a>
</g>
</g>
<!-- a1583 -->
<g id="node18" class="node"><title>a1583</title>
<g id="a_node18"><a xlink:title="[[ARAN] Makes me a mite jealous, he does. Not many men can snore, belch, an&#39; fart like that, an&#39; to do all three at th&#39; same time, now that takes bloody fine skills, eh?">
<polygon fill="none" stroke="black" points="126,-456.5 126,-479.5 180,-479.5 180,-456.5 126,-456.5"/>
<text text-anchor="middle" x="153" y="-464.3" font-family="Times New Roman,serif" font-size="14.00">a1583</text>
</a>
</g>
</g>
<!-- a3238&#45;&gt;a1583 -->
<g id="edge17" class="edge"><title>a3238:t17&#45;&gt;a1583</title>
<g id="a_edge17"><a xlink:title="[InParty(Player4) Gender(Player4,MALE) !Name(c&#45;aran,Player4) [PC] So, what do you really think of PLAYER4?">
<path fill="#CC00CC" stroke="black" d="M80,-553C112.636,-553 93.1048,-512.257 116,-489 117.079,-487.904 118.226,-486.846 119.424,-485.826"/>
<polygon fill="black" stroke="black" points="121.843,-488.393 127.855,-479.669 117.715,-482.74 121.843,-488.393"/>
</a>
</g>
</g>
<!-- a1584 -->
<g id="node19" class="node"><title>a1584</title>
<g id="a_node19"><a xlink:title="[[ARAN] I don&#39;t. Should I? I mean, he be right fine lookin&#39;, but I tend to think o&#39; womenfolk. Why, did he ask about me? What did he say?">
<polygon fill="none" stroke="black" points="126,-414.5 126,-437.5 180,-437.5 180,-414.5 126,-414.5"/>
<text text-anchor="middle" x="153" y="-422.3" font-family="Times New Roman,serif" font-size="14.00">a1584</text>
</a>
</g>
</g>
<!-- a3238&#45;&gt;a1584 -->
<g id="edge18" class="edge"><title>a3238:t18&#45;&gt;a1584</title>
<g id="a_edge18"><a xlink:title="[InParty(Player5) Gender(Player5,MALE) !Name(c&#45;aran,Player5) [PC] So, what do you really think of PLAYER5?">
<path fill="#3399FF" stroke="black" d="M80,-530C120.209,-530 89.3062,-477.07 116,-447 116.991,-445.884 118.055,-444.811 119.176,-443.783"/>
<polygon fill="black" stroke="black" points="121.386,-446.498 127.184,-437.631 117.121,-440.947 121.386,-446.498"/>
</a>
</g>
</g>
<!-- a1585 -->
<g id="node20" class="node"><title>a1585</title>
<g id="a_node20"><a xlink:title="[[ARAN] Not th&#39; sharpest o&#39; tacks, though he claims a good bit o&#39; intelligence. What sort o&#39; idiot wanders Toril in th&#39; company o&#39; a mixed group o&#39; adventurers, followin&#39; some young adventurin&#39; Bhaalspawn to certain death an&#39; destruction, probably by a slow an&#39; painful means? I mean, really, come on. Any smart adventurer would say &#39;Screw this. I&#39;m hittin&#39; th&#39; nearest tavern, an&#39; not leavin&#39; until someone comes up wi&#39; an adventure what don&#39;t pit me against opponents what be gods&#39;.">
<polygon fill="none" stroke="black" points="126,-372.5 126,-395.5 180,-395.5 180,-372.5 126,-372.5"/>
<text text-anchor="middle" x="153" y="-380.3" font-family="Times New Roman,serif" font-size="14.00">a1585</text>
</a>
</g>
</g>
<!-- a3238&#45;&gt;a1585 -->
<g id="edge19" class="edge"><title>a3238:t19&#45;&gt;a1585</title>
<g id="a_edge19"><a xlink:title="[InParty(Player6) Gender(Player6,MALE) !Name(c&#45;aran,Player6) [PC] So, what do you really think of PLAYER6?">
<path fill="#CCCC33" stroke="black" d="M80,-507C128.074,-507 85.3618,-442.046 116,-405 116.83,-403.996 117.721,-403.03 118.661,-402.101"/>
<polygon fill="black" stroke="black" points="121.016,-404.698 126.605,-395.697 116.623,-399.248 121.016,-404.698"/>
</a>
</g>
</g>
<!-- a1586 -->
<g id="node21" class="node"><title>a1586</title>
<g id="a_node21"><a xlink:title="[[ARAN] I think if I hadn&#39;t met you, naught but boredom an&#39; ennui would o&#39; happened for me. Well, sometimes I think that. Other times, I&#39;m just starin&#39; at you an&#39; imaginin&#39; you naked.">
<polygon fill="none" stroke="black" points="126,-330.5 126,-353.5 180,-353.5 180,-330.5 126,-330.5"/>
<text text-anchor="middle" x="153" y="-338.3" font-family="Times New Roman,serif" font-size="14.00">a1586</text>
</a>
</g>
</g>
<!-- a3238&#45;&gt;a1586 -->
<g id="edge20" class="edge"><title>a3238:t20&#45;&gt;a1586</title>
<g id="a_edge20"><a xlink:title="[Gender(Player1,FEMALE) [PC] So, what do you really think of me?">
<path fill="#FFCCFF" stroke="black" d="M80,-484C136.107,-484 81.3364,-407.119 116,-363 116.805,-361.976 117.674,-360.992 118.595,-360.048"/>
<polygon fill="black" stroke="black" points="120.96,-362.634 126.453,-353.574 116.509,-357.231 120.96,-362.634"/>
</a>
</g>
</g>
<!-- a1587 -->
<g id="node22" class="node"><title>a1587</title>
<g id="a_node22"><a xlink:title="[[ARAN] I think if I hadn&#39;t met you, naught but boredom an&#39; ennui would o&#39; happened for me. Don&#39;t rightly know whether to thank you for that, or tell you to stick Helm&#39;s Fist up your arse an&#39; give it a good twist.">
<polygon fill="none" stroke="black" points="126,-288.5 126,-311.5 180,-311.5 180,-288.5 126,-288.5"/>
<text text-anchor="middle" x="153" y="-296.3" font-family="Times New Roman,serif" font-size="14.00">a1587</text>
</a>
</g>
</g>
<!-- a3238&#45;&gt;a1587 -->
<g id="edge21" class="edge"><title>a3238:t21&#45;&gt;a1587</title>
<g id="a_edge21"><a xlink:title="[Gender(Player1,MALE) [PC] So, what do you really think of me?">
<path fill="#3300FF" stroke="black" d="M80,-461C144.246,-461 77.262,-372.254 116,-321 116.676,-320.105 117.403,-319.242 118.17,-318.409"/>
<polygon fill="black" stroke="black" points="120.648,-320.896 125.972,-311.736 116.098,-315.576 120.648,-320.896"/>
</a>
</g>
</g>
<!-- a1799 -->
<g id="node23" class="node"><title>a1799</title>
<g id="a_node23"><a xlink:title="[[ARAN] Hey, by the way, your armor be all wrong. I know you be th&#39; scourge o&#39; Faerun, but you don&#39;t have to wear your heart on your sleeve, eh? In this case, someone else&#39;s, by th&#39; look. Not a great morale boostin&#39; thing, by my account. DO SetGlobal(c&#45;arskinarm,LOCALS,1) SetGlobalTimer(c&#45;aranskin,GLOBAL,FOUR_DAYS)">
<polygon fill="none" stroke="black" points="126,-246.5 126,-269.5 180,-269.5 180,-246.5 126,-246.5"/>
<text text-anchor="middle" x="153" y="-254.3" font-family="Times New Roman,serif" font-size="14.00">a1799</text>
</a>
</g>
</g>
<!-- a3238&#45;&gt;a1799 -->
<g id="edge22" class="edge"><title>a3238:t22&#45;&gt;a1799</title>
<g id="a_edge22"><a xlink:title="[HasItemEquiped(LEAT21,Player1) Global(c&#45;arskinarm,LOCALS,0)">
<path fill="#FF3300" stroke="black" d="M80,-438C152.455,-438 73.1559,-337.431 116,-279 116.663,-278.096 117.378,-277.224 118.136,-276.384"/>
<polygon fill="black" stroke="black" points="120.619,-278.863 125.882,-269.669 116.033,-273.574 120.619,-278.863"/>
</a>
</g>
</g>
<!-- a1798 -->
<g id="node24" class="node"><title>a1798</title>
<g id="a_node24"><a xlink:title="[[ARAN] You still be wearin&#39; that Grumbar&#45;lovin&#39; Cyric&#45;blighted armor? Gives me th&#39; chills, it does.">
<polygon fill="#c1ffc1" stroke="black" points="116.5,-135 116.5,-227 189.5,-227 189.5,-135 116.5,-135"/>
<text text-anchor="middle" x="141.5" y="-177.3" font-family="Times New Roman,serif" font-size="14.00">a1798</text>
<polyline fill="none" stroke="black" points="166.5,-135 166.5,-227 "/>
<text text-anchor="middle" x="178" y="-211.8" font-family="Times New Roman,serif" font-size="14.00">1</text>
<polyline fill="none" stroke="black" points="166.5,-204 189.5,-204 "/>
<text text-anchor="middle" x="178" y="-188.8" font-family="Times New Roman,serif" font-size="14.00">2</text>
<polyline fill="none" stroke="black" points="166.5,-181 189.5,-181 "/>
<text text-anchor="middle" x="178" y="-165.8" font-family="Times New Roman,serif" font-size="14.00">3</text>
<polyline fill="none" stroke="black" points="166.5,-158 189.5,-158 "/>
<text text-anchor="middle" x="178" y="-142.8" font-family="Times New Roman,serif" font-size="14.00">4</text>
</a>
</g>
</g>
<!-- a3238&#45;&gt;a1798 -->
<g id="edge23" class="edge"><title>a3238:t23&#45;&gt;a1798</title>
<g id="a_edge23"><a xlink:title="[HasItemEquiped(LEAT21,Player1) Global(c&#45;arskinarm,LOCALS,1) GlobalTimerExpired(c&#45;aranskin,GLOBAL)">
<path fill="#FF3300" stroke="black" d="M80,-415C120.356,-415 100.827,-274.396 116,-237 116.084,-236.792 116.169,-236.585 116.255,-236.377"/>
<polygon fill="black" stroke="black" points="119.552,-237.586 120.578,-227.041 113.2,-234.645 119.552,-237.586"/>
</a>
</g>
</g>
<!-- a1797 -->
<g id="node25" class="node"><title>a1797</title>
<g id="a_node25"><a xlink:title="[[ARAN] Look, I do a good bit around here, an&#39; I know you be th&#39; leader. I&#39;m just sayin&#39;, that armor makes it blighted hard for me to do my job. Th&#39; smell be only part o&#39; it. Shar&#39;s Kiss, get rid o&#39; it, eh?">
<polygon fill="#c1ffc1" stroke="black" points="116.5,-0.5 116.5,-115.5 189.5,-115.5 189.5,-0.5 116.5,-0.5"/>
<text text-anchor="middle" x="141.5" y="-54.3" font-family="Times New Roman,serif" font-size="14.00">a1797</text>
<polyline fill="none" stroke="black" points="166.5,-0.5 166.5,-115.5 "/>
<text text-anchor="middle" x="178" y="-100.3" font-family="Times New Roman,serif" font-size="14.00">1</text>
<polyline fill="none" stroke="black" points="166.5,-92.5 189.5,-92.5 "/>
<text text-anchor="middle" x="178" y="-77.3" font-family="Times New Roman,serif" font-size="14.00">2</text>
<polyline fill="none" stroke="black" points="166.5,-69.5 189.5,-69.5 "/>
<text text-anchor="middle" x="178" y="-54.3" font-family="Times New Roman,serif" font-size="14.00">3</text>
<polyline fill="none" stroke="black" points="166.5,-46.5 189.5,-46.5 "/>
<text text-anchor="middle" x="178" y="-31.3" font-family="Times New Roman,serif" font-size="14.00">4</text>
<polyline fill="none" stroke="black" points="166.5,-23.5 189.5,-23.5 "/>
<text text-anchor="middle" x="178" y="-8.3" font-family="Times New Roman,serif" font-size="14.00">5</text>
</a>
</g>
</g>
<!-- a3238&#45;&gt;a1797 -->
<g id="edge24" class="edge"><title>a3238:t24&#45;&gt;a1797</title>
<g id="a_edge24"><a xlink:title="[HasItemEquiped(LEAT21,Player1) Global(c&#45;arskinarm,LOCALS,2) GlobalTimerExpired(c&#45;aranskin,GLOBAL)">
<path fill="none" stroke="black" d="M65,-380C65,-264.422 76.8877,-233.759 116,-125 116.035,-124.903 116.07,-124.806 116.105,-124.709"/>
<polygon fill="black" stroke="black" points="119.277,-126.207 119.692,-115.62 112.765,-123.637 119.277,-126.207"/>
</a>
</g>
</g>
<!-- a1795 -->
<g id="node26" class="node"><title>a1795</title>
<g id="a_node26"><a xlink:title="[[ARAN] Hey, I don&#39;t go around second guessin&#39; you. So if I be sayin&#39; it, you know there be one hells of a lot more people who have noticed. Might fit your ideas, but it be bad tactics to give away your position that way.">
<polygon fill="none" stroke="black" points="226,-169.5 226,-192.5 280,-192.5 280,-169.5 226,-169.5"/>
<text text-anchor="middle" x="253" y="-177.3" font-family="Times New Roman,serif" font-size="14.00">a1795</text>
</a>
</g>
</g>
<!-- a1798&#45;&gt;a1795 -->
<g id="edge25" class="edge"><title>a1798:t1&#45;&gt;a1795</title>
<g id="a_edge25"><a xlink:title="[[PC] If it bothers you that much, I will take it off. DO SetGlobal(c&#45;arskinarm,LOCALS,2) SetGlobalTimer(c&#45;aranskin,GLOBAL,FOUR_DAYS)">
<path fill="none" stroke="black" d="M190,-216C205.366,-216 220.428,-207.747 231.859,-199.256"/>
<polygon fill="black" stroke="black" points="234.231,-201.84 239.836,-192.849 229.848,-196.382 234.231,-201.84"/>
</a>
</g>
</g>
<!-- a1798&#45;&gt;a1795 -->
<g id="edge26" class="edge"><title>a1798:t2&#45;&gt;a1795</title>
<g id="a_edge26"><a xlink:title="[[PC] I think it has a great effect on our opponents&#39; morale. You are just going to have to get used to it. DO SetGlobal(c&#45;arskinarm,LOCALS,2) SetGlobalTimer(c&#45;aranskin,GLOBAL,FOUR_DAYS)">
<path fill="none" stroke="black" d="M190,-193C198.496,-193 207.529,-191.9 215.997,-190.367"/>
<polygon fill="black" stroke="black" points="216.874,-193.76 225.969,-188.326 215.471,-186.902 216.874,-193.76"/>
</a>
</g>
</g>
<!-- a1798&#45;&gt;a1795 -->
<g id="edge27" class="edge"><title>a1798:t3&#45;&gt;a1795</title>
<g id="a_edge27"><a xlink:title="[[PC] If I wanted you opinion, I would have asked. DO SetGlobal(c&#45;arskinarm,LOCALS,2) SetGlobalTimer(c&#45;aranskin,GLOBAL,FOUR_DAYS)">
<path fill="none" stroke="black" d="M190,-169C198.496,-169 207.529,-170.1 215.997,-171.633"/>
<polygon fill="black" stroke="black" points="215.471,-175.098 225.969,-173.674 216.874,-168.24 215.471,-175.098"/>
</a>
</g>
</g>
<!-- a1798&#45;&gt;a1795 -->
<g id="edge28" class="edge"><title>a1798:t4&#45;&gt;a1795</title>
<g id="a_edge28"><a xlink:title="[[PC] Shut up, or your ears will add decoration to it. DO SetGlobal(c&#45;arskinarm,LOCALS,2) SetGlobalTimer(c&#45;aranskin,GLOBAL,FOUR_DAYS)">
<path fill="none" stroke="black" d="M190,-146C205.366,-146 220.428,-154.253 231.859,-162.744"/>
<polygon fill="black" stroke="black" points="229.848,-165.618 239.836,-169.151 234.231,-160.16 229.848,-165.618"/>
</a>
</g>
</g>
<!-- a1796 -->
<g id="node27" class="node"><title>a1796</title>
<g id="a_node27"><a xlink:title="[[ARAN] Cyric&#39;s Black Heart, I don&#39;t run out on contracts. But you smell worse than a charnelhouse. If I throw up, you will be knowin&#39; why.">
<polygon fill="none" stroke="black" points="226,-46.5 226,-69.5 280,-69.5 280,-46.5 226,-46.5"/>
<text text-anchor="middle" x="253" y="-54.3" font-family="Times New Roman,serif" font-size="14.00">a1796</text>
</a>
</g>
</g>
<!-- a1797&#45;&gt;a1796 -->
<g id="edge29" class="edge"><title>a1797:t1&#45;&gt;a1796</title>
<g id="a_edge29"><a xlink:title="[[PC] Or you will run crying like a weakling child, break your contract, and leave?~ DO ~SetGlobal(c&#45;arskinarm,LOCALS,3)">
<path fill="none" stroke="black" d="M190,-104C208.911,-104 225.81,-90.0269 237.17,-77.4831"/>
<polygon fill="black" stroke="black" points="240.037,-79.5116 243.801,-69.6077 234.683,-75.003 240.037,-79.5116"/>
</a>
</g>
</g>
<!-- a1797&#45;&gt;a1796 -->
<g id="edge30" class="edge"><title>a1797:t2&#45;&gt;a1796</title>
<g id="a_edge30"><a xlink:title="[[PC] Shut up, Aran. I heard you the first two times. I will use what tools I see fit to advance my goals.~ DO ~SetGlobal(c&#45;arskinarm,LOCALS,3)">
<path fill="none" stroke="black" d="M190,-81C200.935,-81 212.316,-77.816 222.297,-73.8173"/>
<polygon fill="black" stroke="black" points="224.017,-76.8838 231.744,-69.6348 221.183,-70.4831 224.017,-76.8838"/>
</a>
</g>
</g>
<!-- a1797&#45;&gt;a1796 -->
<g id="edge31" class="edge"><title>a1797:t3&#45;&gt;a1796</title>
<g id="a_edge31"><a xlink:title="[[PC] Are you volunteering to add more skin to this armor? Speak again, and I will ~ DO ~SetGlobal(c&#45;arskinarm,LOCALS,3)">
<path fill="none" stroke="black" d="M190,-58C198.25,-58 207.116,-58 215.492,-58"/>
<polygon fill="black" stroke="black" points="215.754,-61.5001 225.754,-58 215.754,-54.5001 215.754,-61.5001"/>
</a>
</g>
</g>
<!-- a1797&#45;&gt;a1796 -->
<g id="edge32" class="edge"><title>a1797:t4&#45;&gt;a1796</title>
<g id="a_edge32"><a xlink:title="[[PC] I may very well take it off. You are useful. But then again, I might put it back on. You will have to get used to it, or leave.~ DO ~SetGlobal(c&#45;arskinarm,LOCALS,3)">
<path fill="none" stroke="black" d="M190,-35C200.935,-35 212.316,-38.184 222.297,-42.1827"/>
<polygon fill="black" stroke="black" points="221.183,-45.5169 231.744,-46.3652 224.017,-39.1162 221.183,-45.5169"/>
</a>
</g>
</g>
<!-- a1797&#45;&gt;a1796 -->
<g id="edge33" class="edge"><title>a1797:t5&#45;&gt;a1796</title>
<g id="a_edge33"><a xlink:title="[[PC] You do very little, and I am tired of your whining. That is the last warning you will get.~ DO ~SetGlobal(c&#45;arskinarm,LOCALS,3)">
<path fill="none" stroke="black" d="M190,-12C208.911,-12 225.81,-25.9731 237.17,-38.5169"/>
<polygon fill="black" stroke="black" points="234.683,-40.997 243.801,-46.3923 240.037,-36.4884 234.683,-40.997"/>
</a>
</g>
</g>
</g>
</svg>
